<?xml version="1.0" encoding="UTF-8" standalone="no"?>
<!DOCTYPE svg PUBLIC "-//W3C//DTD SVG 1.1//EN"
 "http://www.w3.org/Graphics/SVG/1.1/DTD/svg11.dtd">
<!-- Generated by graphviz version 2.44.0 (20200408.0750)
 -->
<!-- Title: dependency&#45;cruiser output Pages: 1 -->
<svg width="742pt" height="448pt"
 viewBox="0.00 0.00 742.05 448.00" xmlns="http://www.w3.org/2000/svg" xmlns:xlink="http://www.w3.org/1999/xlink">
<g id="graph0" class="graph" transform="scale(1 1) rotate(0) translate(4 444)">
<title>dependency&#45;cruiser output</title>
<polygon fill="white" stroke="transparent" points="-4,4 -4,-444 738.05,-444 738.05,4 -4,4"/>
<g id="clust1" class="cluster">
<title>cluster_client</title>
<path fill="#ffffff" stroke="black" stroke-width="2" d="M20,-8C20,-8 714.05,-8 714.05,-8 720.05,-8 726.05,-14 726.05,-20 726.05,-20 726.05,-420 726.05,-420 726.05,-426 720.05,-432 714.05,-432 714.05,-432 20,-432 20,-432 14,-432 8,-426 8,-420 8,-420 8,-20 8,-20 8,-14 14,-8 20,-8"/>
<text text-anchor="middle" x="367.03" y="-419.9" font-family="Helvetica,sans-Serif" font-weight="bold" font-size="9.00">client</text>
</g>
<g id="clust2" class="cluster">
<title>cluster_client/src</title>
<path fill="#ffffff" stroke="black" stroke-width="2" d="M28,-16C28,-16 706.05,-16 706.05,-16 712.05,-16 718.05,-22 718.05,-28 718.05,-28 718.05,-393 718.05,-393 718.05,-399 712.05,-405 706.05,-405 706.05,-405 28,-405 28,-405 22,-405 16,-399 16,-393 16,-393 16,-28 16,-28 16,-22 22,-16 28,-16"/>
<text text-anchor="middle" x="367.03" y="-392.9" font-family="Helvetica,sans-Serif" font-weight="bold" font-size="9.00">src</text>
</g>
<g id="clust3" class="cluster">
<title>cluster_client/src/data&#45;access</title>
<path fill="#ffffff" stroke="black" stroke-width="2" d="M446.04,-40C446.04,-40 698.05,-40 698.05,-40 704.05,-40 710.05,-46 710.05,-52 710.05,-52 710.05,-116 710.05,-116 710.05,-122 704.05,-128 698.05,-128 698.05,-128 446.04,-128 446.04,-128 440.04,-128 434.04,-122 434.04,-116 434.04,-116 434.04,-52 434.04,-52 434.04,-46 440.04,-40 446.04,-40"/>
<text text-anchor="middle" x="572.05" y="-115.9" font-family="Helvetica,sans-Serif" font-weight="bold" font-size="9.00">data&#45;access</text>
</g>
<g id="clust4" class="cluster">
<title>cluster_client/src/data&#45;access/api&#45;calls</title>
<path fill="#ffffff" stroke="black" stroke-width="2" d="M454.04,-48C454.04,-48 500.04,-48 500.04,-48 506.04,-48 512.04,-54 512.04,-60 512.04,-60 512.04,-89 512.04,-89 512.04,-95 506.04,-101 500.04,-101 500.04,-101 454.04,-101 454.04,-101 448.04,-101 442.04,-95 442.04,-89 442.04,-89 442.04,-60 442.04,-60 442.04,-54 448.04,-48 454.04,-48"/>
<text text-anchor="middle" x="477.04" y="-88.9" font-family="Helvetica,sans-Serif" font-weight="bold" font-size="9.00">api&#45;calls</text>
</g>
<g id="clust5" class="cluster">
<title>cluster_client/src/data&#45;access/state</title>
<path fill="#ffffff" stroke="black" stroke-width="2" d="M644.05,-48C644.05,-48 690.05,-48 690.05,-48 696.05,-48 702.05,-54 702.05,-60 702.05,-60 702.05,-89 702.05,-89 702.05,-95 696.05,-101 690.05,-101 690.05,-101 644.05,-101 644.05,-101 638.05,-101 632.05,-95 632.05,-89 632.05,-89 632.05,-60 632.05,-60 632.05,-54 638.05,-48 644.05,-48"/>
<text text-anchor="middle" x="667.05" y="-88.9" font-family="Helvetica,sans-Serif" font-weight="bold" font-size="9.00">state</text>
</g>
<g id="clust6" class="cluster">
<title>cluster_client/src/presentation</title>
<path fill="#ffffff" stroke="black" stroke-width="2" d="M98,-136C98,-136 550.05,-136 550.05,-136 556.05,-136 562.05,-142 562.05,-148 562.05,-148 562.05,-366 562.05,-366 562.05,-372 556.05,-378 550.05,-378 550.05,-378 98,-378 98,-378 92,-378 86,-372 86,-366 86,-366 86,-148 86,-148 86,-142 92,-136 98,-136"/>
<text text-anchor="middle" x="324.03" y="-365.9" font-family="Helvetica,sans-Serif" font-weight="bold" font-size="9.00">presentation</text>
</g>
<g id="clust7" class="cluster">
<title>cluster_client/src/presentation/components</title>
<path fill="#ffffff" stroke="black" stroke-width="2" d="M281.51,-205C281.51,-205 542.05,-205 542.05,-205 548.05,-205 554.05,-211 554.05,-217 554.05,-217 554.05,-339 554.05,-339 554.05,-345 548.05,-351 542.05,-351 542.05,-351 281.51,-351 281.51,-351 275.51,-351 269.51,-345 269.51,-339 269.51,-339 269.51,-217 269.51,-217 269.51,-211 275.51,-205 281.51,-205"/>
<text text-anchor="middle" x="411.78" y="-338.9" font-family="Helvetica,sans-Serif" font-weight="bold" font-size="9.00">components</text>
</g>
<g id="clust8" class="cluster">
<title>cluster_client/src/presentation/handlers</title>
<path fill="#ffffff" stroke="black" stroke-width="2" d="M310.52,-144C310.52,-144 362.02,-144 362.02,-144 368.02,-144 374.02,-150 374.02,-156 374.02,-156 374.02,-185 374.02,-185 374.02,-191 368.02,-197 362.02,-197 362.02,-197 310.52,-197 310.52,-197 304.52,-197 298.52,-191 298.52,-185 298.52,-185 298.52,-156 298.52,-156 298.52,-150 304.52,-144 310.52,-144"/>
<text text-anchor="middle" x="336.27" y="-184.9" font-family="Helvetica,sans-Serif" font-weight="bold" font-size="9.00">handlers</text>
</g>
<g id="clust9" class="cluster">
<title>cluster_client/src/presentation/listeners</title>
<path fill="#ffffff" stroke="black" stroke-width="2" d="M106,-144C106,-144 249.51,-144 249.51,-144 255.51,-144 261.51,-150 261.51,-156 261.51,-156 261.51,-278 261.51,-278 261.51,-284 255.51,-290 249.51,-290 249.51,-290 106,-290 106,-290 100,-290 94,-284 94,-278 94,-278 94,-156 94,-156 94,-150 100,-144 106,-144"/>
<text text-anchor="middle" x="177.75" y="-277.9" font-family="Helvetica,sans-Serif" font-weight="bold" font-size="9.00">listeners</text>
</g>
<!-- client/src/data&#45;access/api&#45;calls/calls.js -->
<g id="node1" class="node">
<title>client/src/data&#45;access/api&#45;calls/calls.js</title>
<g id="a_node1"><a xlink:href="client/src/data-access/api-calls/calls.js" xlink:title="calls.js">
<path fill="#ffffcc" stroke="black" d="M497.84,-74.3C497.84,-74.3 456.25,-74.3 456.25,-74.3 453.14,-74.3 450.04,-71.2 450.04,-68.1 450.04,-68.1 450.04,-61.9 450.04,-61.9 450.04,-58.8 453.14,-55.7 456.25,-55.7 456.25,-55.7 497.84,-55.7 497.84,-55.7 500.94,-55.7 504.04,-58.8 504.04,-61.9 504.04,-61.9 504.04,-68.1 504.04,-68.1 504.04,-71.2 500.94,-74.3 497.84,-74.3"/>
<text text-anchor="middle" x="477.04" y="-62.3" font-family="Helvetica,sans-Serif" font-size="9.00">calls.js</text>
</a>
</g>
</g>
<!-- client/src/data&#45;access/index.js -->
<g id="node2" class="node">
<title>client/src/data&#45;access/index.js</title>
<g id="a_node2"><a xlink:href="client/src/data-access/index.js" xlink:title="index.js">
<path fill="#ffffcc" stroke="black" d="M617.85,-87.3C617.85,-87.3 576.26,-87.3 576.26,-87.3 573.15,-87.3 570.05,-84.2 570.05,-81.1 570.05,-81.1 570.05,-74.9 570.05,-74.9 570.05,-71.8 573.15,-68.7 576.26,-68.7 576.26,-68.7 617.85,-68.7 617.85,-68.7 620.95,-68.7 624.05,-71.8 624.05,-74.9 624.05,-74.9 624.05,-81.1 624.05,-81.1 624.05,-84.2 620.95,-87.3 617.85,-87.3"/>
<text text-anchor="middle" x="597.05" y="-75.3" font-family="Helvetica,sans-Serif" font-size="9.00">index.js</text>
</a>
</g>
</g>
<!-- client/src/data&#45;access/api&#45;calls/calls.js&#45;&gt;client/src/data&#45;access/index.js -->
<g id="edge1" class="edge">
<title>client/src/data&#45;access/api&#45;calls/calls.js&#45;&gt;client/src/data&#45;access/index.js</title>
<path fill="none" stroke="#000000" stroke-width="2" stroke-opacity="0.200000" d="M504.23,-67.89C521.8,-69.82 545.07,-72.38 563.78,-74.44"/>
<polygon fill="#000000" fill-opacity="0.200000" stroke="#000000" stroke-width="2" stroke-opacity="0.200000" points="563.74,-76.55 569.94,-75.12 564.2,-72.38 563.74,-76.55"/>
</g>
<!-- client/src/data&#45;access/state/state.js -->
<g id="node3" class="node">
<title>client/src/data&#45;access/state/state.js</title>
<g id="a_node3"><a xlink:href="client/src/data-access/state/state.js" xlink:title="state.js">
<path fill="#ffffcc" stroke="black" d="M687.85,-74.3C687.85,-74.3 646.26,-74.3 646.26,-74.3 643.15,-74.3 640.05,-71.2 640.05,-68.1 640.05,-68.1 640.05,-61.9 640.05,-61.9 640.05,-58.8 643.15,-55.7 646.26,-55.7 646.26,-55.7 687.85,-55.7 687.85,-55.7 690.95,-55.7 694.05,-58.8 694.05,-61.9 694.05,-61.9 694.05,-68.1 694.05,-68.1 694.05,-71.2 690.95,-74.3 687.85,-74.3"/>
<text text-anchor="middle" x="667.05" y="-62.3" font-family="Helvetica,sans-Serif" font-size="9.00">state.js</text>
</a>
</g>
</g>
<!-- client/src/data&#45;access/index.js&#45;&gt;client/src/data&#45;access/state/state.js -->
<g id="edge2" class="edge">
<title>client/src/data&#45;access/index.js&#45;&gt;client/src/data&#45;access/state/state.js</title>
<path fill="none" stroke="#000000" stroke-width="2" stroke-opacity="0.200000" d="M624.15,-73.01C627.17,-72.43 630.29,-71.84 633.39,-71.25"/>
<polygon fill="#000000" fill-opacity="0.200000" stroke="#000000" stroke-width="2" stroke-opacity="0.200000" points="634.19,-73.23 639.69,-70.04 633.4,-69.1 634.19,-73.23"/>
</g>
<!-- client/src/index.js -->
<g id="node4" class="node">
<title>client/src/index.js</title>
<g id="a_node4"><a xlink:href="client/src/index.js" xlink:title="index.js">
<path fill="#ffffcc" stroke="black" d="M71.8,-144.3C71.8,-144.3 30.2,-144.3 30.2,-144.3 27.1,-144.3 24,-141.2 24,-138.1 24,-138.1 24,-131.9 24,-131.9 24,-128.8 27.1,-125.7 30.2,-125.7 30.2,-125.7 71.8,-125.7 71.8,-125.7 74.9,-125.7 78,-128.8 78,-131.9 78,-131.9 78,-138.1 78,-138.1 78,-141.2 74.9,-144.3 71.8,-144.3"/>
<text text-anchor="middle" x="51" y="-132.3" font-family="Helvetica,sans-Serif" font-size="9.00">index.js</text>
</a>
</g>
</g>
<!-- client/src/index.js&#45;&gt;client/src/data&#45;access/index.js -->
<g id="edge3" class="edge">
<title>client/src/index.js&#45;&gt;client/src/data&#45;access/index.js</title>
<path fill="none" stroke="#000000" stroke-width="2" stroke-opacity="0.200000" d="M58.69,-125.62C78.51,-99.02 139.99,-25 210.25,-25 210.25,-25 210.25,-25 337.27,-25 437.27,-25 473.04,10.57 562.05,-35 573.81,-41.02 582.81,-53.15 588.59,-62.99"/>
<polygon fill="#000000" fill-opacity="0.200000" stroke="#000000" stroke-width="2" stroke-opacity="0.200000" points="586.87,-64.23 591.62,-68.46 590.55,-62.2 586.87,-64.23"/>
</g>
<!-- client/src/presentation/components/home&#45;page.component.js -->
<g id="node5" class="node">
<title>client/src/presentation/components/home&#45;page.component.js</title>
<g id="a_node5"><a xlink:href="client/src/presentation/components/home-page.component.js" xlink:title="home&#45;page.component.js">
<path fill="#ffffcc" stroke="black" d="M388.6,-246.3C388.6,-246.3 283.94,-246.3 283.94,-246.3 280.84,-246.3 277.74,-243.2 277.74,-240.1 277.74,-240.1 277.74,-233.9 277.74,-233.9 277.74,-230.8 280.84,-227.7 283.94,-227.7 283.94,-227.7 388.6,-227.7 388.6,-227.7 391.7,-227.7 394.8,-230.8 394.8,-233.9 394.8,-233.9 394.8,-240.1 394.8,-240.1 394.8,-243.2 391.7,-246.3 388.6,-246.3"/>
<text text-anchor="middle" x="336.27" y="-234.3" font-family="Helvetica,sans-Serif" font-size="9.00">home&#45;page.component.js</text>
</a>
</g>
</g>
<!-- client/src/index.js&#45;&gt;client/src/presentation/components/home&#45;page.component.js -->
<g id="edge4" class="edge">
<title>client/src/index.js&#45;&gt;client/src/presentation/components/home&#45;page.component.js</title>
<path fill="none" stroke="#000000" stroke-width="2" stroke-opacity="0.200000" d="M78.08,-126.26C121.97,-113.37 210.77,-95.38 261.51,-141 281.18,-158.69 254.64,-178.11 269.51,-200 277.03,-211.08 289.04,-219.22 300.75,-224.99"/>
<polygon fill="#000000" fill-opacity="0.200000" stroke="#000000" stroke-width="2" stroke-opacity="0.200000" points="300.12,-227.01 306.45,-227.63 301.89,-223.2 300.12,-227.01"/>
</g>
<!-- client/src/presentation/listeners/index.js -->
<g id="node6" class="node">
<title>client/src/presentation/listeners/index.js</title>
<g id="a_node6"><a xlink:href="client/src/presentation/listeners/index.js" xlink:title="index.js">
<path fill="#ffffcc" stroke="black" d="M149.8,-201.3C149.8,-201.3 108.2,-201.3 108.2,-201.3 105.1,-201.3 102,-198.2 102,-195.1 102,-195.1 102,-188.9 102,-188.9 102,-185.8 105.1,-182.7 108.2,-182.7 108.2,-182.7 149.8,-182.7 149.8,-182.7 152.9,-182.7 156,-185.8 156,-188.9 156,-188.9 156,-195.1 156,-195.1 156,-198.2 152.9,-201.3 149.8,-201.3"/>
<text text-anchor="middle" x="129" y="-189.3" font-family="Helvetica,sans-Serif" font-size="9.00">index.js</text>
</a>
</g>
</g>
<!-- client/src/index.js&#45;&gt;client/src/presentation/listeners/index.js -->
<g id="edge5" class="edge">
<title>client/src/index.js&#45;&gt;client/src/presentation/listeners/index.js</title>
<path fill="none" stroke="#000000" stroke-width="2" stroke-opacity="0.200000" d="M56.98,-144.47C62.7,-154.46 72.99,-169.98 86,-179 89.13,-181.17 92.63,-182.99 96.24,-184.51"/>
<polygon fill="#000000" fill-opacity="0.200000" stroke="#000000" stroke-width="2" stroke-opacity="0.200000" points="95.62,-186.52 101.98,-186.66 97.1,-182.59 95.62,-186.52"/>
</g>
<!-- client/src/presentation/components/home&#45;page.component.js&#45;&gt;client/src/data&#45;access/index.js -->
<g id="edge9" class="edge">
<title>client/src/presentation/components/home&#45;page.component.js&#45;&gt;client/src/data&#45;access/index.js</title>
<path fill="none" stroke="#000000" stroke-width="2" stroke-opacity="0.200000" d="M361.72,-227.58C373.84,-221.58 387.47,-212.55 395.03,-200 412.88,-170.4 382.59,-68.4 408.03,-45 420.63,-33.42 546.2,-38.57 562.05,-45 571.47,-48.82 579.71,-56.63 585.72,-63.7"/>
<polygon fill="#000000" fill-opacity="0.200000" stroke="#000000" stroke-width="2" stroke-opacity="0.200000" points="584.12,-65.05 589.52,-68.41 587.39,-62.42 584.12,-65.05"/>
</g>
<!-- client/src/presentation/components/channel&#45;listings.component.js -->
<g id="node7" class="node">
<title>client/src/presentation/components/channel&#45;listings.component.js</title>
<g id="a_node7"><a xlink:href="client/src/presentation/components/channel-listings.component.js" xlink:title="channel&#45;listings.component.js">
<path fill="#ffffcc" stroke="black" d="M537.87,-231.3C537.87,-231.3 416.22,-231.3 416.22,-231.3 413.12,-231.3 410.02,-228.2 410.02,-225.1 410.02,-225.1 410.02,-218.9 410.02,-218.9 410.02,-215.8 413.12,-212.7 416.22,-212.7 416.22,-212.7 537.87,-212.7 537.87,-212.7 540.97,-212.7 544.07,-215.8 544.07,-218.9 544.07,-218.9 544.07,-225.1 544.07,-225.1 544.07,-228.2 540.97,-231.3 537.87,-231.3"/>
<text text-anchor="middle" x="477.04" y="-219.3" font-family="Helvetica,sans-Serif" font-size="9.00">channel&#45;listings.component.js</text>
</a>
</g>
</g>
<!-- client/src/presentation/components/home&#45;page.component.js&#45;&gt;client/src/presentation/components/channel&#45;listings.component.js -->
<g id="edge10" class="edge">
<title>client/src/presentation/components/home&#45;page.component.js&#45;&gt;client/src/presentation/components/channel&#45;listings.component.js</title>
<path fill="none" stroke="#000000" stroke-width="2" stroke-opacity="0.200000" d="M394.92,-230.77C397.84,-230.45 400.78,-230.14 403.74,-229.82"/>
<polygon fill="#000000" fill-opacity="0.200000" stroke="#000000" stroke-width="2" stroke-opacity="0.200000" points="404.06,-231.89 409.8,-229.16 403.61,-227.72 404.06,-231.89"/>
</g>
<!-- client/src/presentation/components/footer.component.js -->
<g id="node8" class="node">
<title>client/src/presentation/components/footer.component.js</title>
<g id="a_node8"><a xlink:href="client/src/presentation/components/footer.component.js" xlink:title="footer.component.js">
<path fill="#ffffcc" stroke="black" d="M518.37,-324.3C518.37,-324.3 435.72,-324.3 435.72,-324.3 432.62,-324.3 429.52,-321.2 429.52,-318.1 429.52,-318.1 429.52,-311.9 429.52,-311.9 429.52,-308.8 432.62,-305.7 435.72,-305.7 435.72,-305.7 518.37,-305.7 518.37,-305.7 521.47,-305.7 524.57,-308.8 524.57,-311.9 524.57,-311.9 524.57,-318.1 524.57,-318.1 524.57,-321.2 521.47,-324.3 518.37,-324.3"/>
<text text-anchor="middle" x="477.04" y="-312.3" font-family="Helvetica,sans-Serif" font-size="9.00">footer.component.js</text>
</a>
</g>
</g>
<!-- client/src/presentation/components/home&#45;page.component.js&#45;&gt;client/src/presentation/components/footer.component.js -->
<g id="edge11" class="edge">
<title>client/src/presentation/components/home&#45;page.component.js&#45;&gt;client/src/presentation/components/footer.component.js</title>
<path fill="none" stroke="#000000" stroke-width="2" stroke-opacity="0.200000" d="M345.36,-246.59C357.53,-260.36 381.89,-285.55 408.03,-299 412.87,-301.49 418.09,-303.59 423.42,-305.38"/>
<polygon fill="#000000" fill-opacity="0.200000" stroke="#000000" stroke-width="2" stroke-opacity="0.200000" points="422.88,-307.41 429.23,-307.19 424.13,-303.4 422.88,-307.41"/>
</g>
<!-- client/src/presentation/components/header.component.js -->
<g id="node9" class="node">
<title>client/src/presentation/components/header.component.js</title>
<g id="a_node9"><a xlink:href="client/src/presentation/components/header.component.js" xlink:title="header.component.js">
<path fill="#ffffcc" stroke="black" d="M520.87,-262.3C520.87,-262.3 433.22,-262.3 433.22,-262.3 430.12,-262.3 427.02,-259.2 427.02,-256.1 427.02,-256.1 427.02,-249.9 427.02,-249.9 427.02,-246.8 430.12,-243.7 433.22,-243.7 433.22,-243.7 520.87,-243.7 520.87,-243.7 523.97,-243.7 527.07,-246.8 527.07,-249.9 527.07,-249.9 527.07,-256.1 527.07,-256.1 527.07,-259.2 523.97,-262.3 520.87,-262.3"/>
<text text-anchor="middle" x="477.04" y="-250.3" font-family="Helvetica,sans-Serif" font-size="9.00">header.component.js</text>
</a>
</g>
</g>
<!-- client/src/presentation/components/home&#45;page.component.js&#45;&gt;client/src/presentation/components/header.component.js -->
<g id="edge12" class="edge">
<title>client/src/presentation/components/home&#45;page.component.js&#45;&gt;client/src/presentation/components/header.component.js</title>
<path fill="none" stroke="#000000" stroke-width="2" stroke-opacity="0.200000" d="M394.92,-243.65C403.34,-244.62 412.01,-245.62 420.39,-246.58"/>
<polygon fill="#000000" fill-opacity="0.200000" stroke="#000000" stroke-width="2" stroke-opacity="0.200000" points="420.54,-248.71 426.74,-247.32 421.02,-244.54 420.54,-248.71"/>
</g>
<!-- client/src/presentation/components/message&#45;history.component.js -->
<g id="node10" class="node">
<title>client/src/presentation/components/message&#45;history.component.js</title>
<g id="a_node10"><a xlink:href="client/src/presentation/components/message-history.component.js" xlink:title="message&#45;history.component.js">
<path fill="#ffffcc" stroke="black" d="M539.86,-293.3C539.86,-293.3 414.22,-293.3 414.22,-293.3 411.12,-293.3 408.02,-290.2 408.02,-287.1 408.02,-287.1 408.02,-280.9 408.02,-280.9 408.02,-277.8 411.12,-274.7 414.22,-274.7 414.22,-274.7 539.86,-274.7 539.86,-274.7 542.96,-274.7 546.06,-277.8 546.06,-280.9 546.06,-280.9 546.06,-287.1 546.06,-287.1 546.06,-290.2 542.96,-293.3 539.86,-293.3"/>
<text text-anchor="middle" x="477.04" y="-281.3" font-family="Helvetica,sans-Serif" font-size="9.00">message&#45;history.component.js</text>
</a>
</g>
</g>
<!-- client/src/presentation/components/home&#45;page.component.js&#45;&gt;client/src/presentation/components/message&#45;history.component.js -->
<g id="edge13" class="edge">
<title>client/src/presentation/components/home&#45;page.component.js&#45;&gt;client/src/presentation/components/message&#45;history.component.js</title>
<path fill="none" stroke="#000000" stroke-width="2" stroke-opacity="0.200000" d="M356.12,-246.38C370.17,-253.09 389.97,-261.97 408.03,-268 413.56,-269.84 419.4,-271.56 425.25,-273.13"/>
<polygon fill="#000000" fill-opacity="0.200000" stroke="#000000" stroke-width="2" stroke-opacity="0.200000" points="424.75,-275.17 431.09,-274.65 425.81,-271.1 424.75,-275.17"/>
</g>
<!-- client/src/presentation/listeners/add&#45;channel.js -->
<g id="node12" class="node">
<title>client/src/presentation/listeners/add&#45;channel.js</title>
<g id="a_node12"><a xlink:href="client/src/presentation/listeners/add-channel.js" xlink:title="add&#45;channel.js">
<path fill="#ffffcc" stroke="black" d="M242.07,-170.3C242.07,-170.3 180.44,-170.3 180.44,-170.3 177.34,-170.3 174.23,-167.2 174.23,-164.1 174.23,-164.1 174.23,-157.9 174.23,-157.9 174.23,-154.8 177.34,-151.7 180.44,-151.7 180.44,-151.7 242.07,-151.7 242.07,-151.7 245.17,-151.7 248.27,-154.8 248.27,-157.9 248.27,-157.9 248.27,-164.1 248.27,-164.1 248.27,-167.2 245.17,-170.3 242.07,-170.3"/>
<text text-anchor="middle" x="211.25" y="-158.3" font-family="Helvetica,sans-Serif" font-size="9.00">add&#45;channel.js</text>
</a>
</g>
</g>
<!-- client/src/presentation/listeners/index.js&#45;&gt;client/src/presentation/listeners/add&#45;channel.js -->
<g id="edge21" class="edge">
<title>client/src/presentation/listeners/index.js&#45;&gt;client/src/presentation/listeners/add&#45;channel.js</title>
<path fill="none" stroke="#000000" stroke-width="2" stroke-opacity="0.200000" d="M154.51,-182.53C162.68,-179.38 171.87,-175.83 180.39,-172.54"/>
<polygon fill="#000000" fill-opacity="0.200000" stroke="#000000" stroke-width="2" stroke-opacity="0.200000" points="181.32,-174.43 186.16,-170.3 179.81,-170.51 181.32,-174.43"/>
</g>
<!-- client/src/presentation/listeners/auto&#45;updates.js -->
<g id="node13" class="node">
<title>client/src/presentation/listeners/auto&#45;updates.js</title>
<g id="a_node13"><a xlink:href="client/src/presentation/listeners/auto-updates.js" xlink:title="auto&#45;updates.js">
<path fill="#ffffcc" stroke="black" d="M243.57,-201.3C243.57,-201.3 178.93,-201.3 178.93,-201.3 175.83,-201.3 172.73,-198.2 172.73,-195.1 172.73,-195.1 172.73,-188.9 172.73,-188.9 172.73,-185.8 175.83,-182.7 178.93,-182.7 178.93,-182.7 243.57,-182.7 243.57,-182.7 246.68,-182.7 249.78,-185.8 249.78,-188.9 249.78,-188.9 249.78,-195.1 249.78,-195.1 249.78,-198.2 246.68,-201.3 243.57,-201.3"/>
<text text-anchor="middle" x="211.25" y="-189.3" font-family="Helvetica,sans-Serif" font-size="9.00">auto&#45;updates.js</text>
</a>
</g>
</g>
<!-- client/src/presentation/listeners/index.js&#45;&gt;client/src/presentation/listeners/auto&#45;updates.js -->
<g id="edge22" class="edge">
<title>client/src/presentation/listeners/index.js&#45;&gt;client/src/presentation/listeners/auto&#45;updates.js</title>
<path fill="none" stroke="#000000" stroke-width="2" stroke-opacity="0.200000" d="M156.28,-192C159.53,-192 162.93,-192 166.36,-192"/>
<polygon fill="#000000" fill-opacity="0.200000" stroke="#000000" stroke-width="2" stroke-opacity="0.200000" points="166.56,-194.1 172.56,-192 166.56,-189.9 166.56,-194.1"/>
</g>
<!-- client/src/presentation/listeners/send&#45;message.js -->
<g id="node14" class="node">
<title>client/src/presentation/listeners/send&#45;message.js</title>
<g id="a_node14"><a xlink:href="client/src/presentation/listeners/send-message.js" xlink:title="send&#45;message.js">
<path fill="#ffffcc" stroke="black" d="M247.06,-232.3C247.06,-232.3 175.44,-232.3 175.44,-232.3 172.34,-232.3 169.24,-229.2 169.24,-226.1 169.24,-226.1 169.24,-219.9 169.24,-219.9 169.24,-216.8 172.34,-213.7 175.44,-213.7 175.44,-213.7 247.06,-213.7 247.06,-213.7 250.16,-213.7 253.26,-216.8 253.26,-219.9 253.26,-219.9 253.26,-226.1 253.26,-226.1 253.26,-229.2 250.16,-232.3 247.06,-232.3"/>
<text text-anchor="middle" x="211.25" y="-220.3" font-family="Helvetica,sans-Serif" font-size="9.00">send&#45;message.js</text>
</a>
</g>
</g>
<!-- client/src/presentation/listeners/index.js&#45;&gt;client/src/presentation/listeners/send&#45;message.js -->
<g id="edge23" class="edge">
<title>client/src/presentation/listeners/index.js&#45;&gt;client/src/presentation/listeners/send&#45;message.js</title>
<path fill="none" stroke="#000000" stroke-width="2" stroke-opacity="0.200000" d="M154.51,-201.47C162.68,-204.62 171.87,-208.17 180.39,-211.46"/>
<polygon fill="#000000" fill-opacity="0.200000" stroke="#000000" stroke-width="2" stroke-opacity="0.200000" points="179.81,-213.49 186.16,-213.7 181.32,-209.57 179.81,-213.49"/>
</g>
<!-- client/src/presentation/listeners/switch&#45;channel.js -->
<g id="node15" class="node">
<title>client/src/presentation/listeners/switch&#45;channel.js</title>
<g id="a_node15"><a xlink:href="client/src/presentation/listeners/switch-channel.js" xlink:title="switch&#45;channel.js">
<path fill="#ffffcc" stroke="black" d="M247.06,-263.3C247.06,-263.3 175.45,-263.3 175.45,-263.3 172.35,-263.3 169.25,-260.2 169.25,-257.1 169.25,-257.1 169.25,-250.9 169.25,-250.9 169.25,-247.8 172.35,-244.7 175.45,-244.7 175.45,-244.7 247.06,-244.7 247.06,-244.7 250.16,-244.7 253.26,-247.8 253.26,-250.9 253.26,-250.9 253.26,-257.1 253.26,-257.1 253.26,-260.2 250.16,-263.3 247.06,-263.3"/>
<text text-anchor="middle" x="211.25" y="-251.3" font-family="Helvetica,sans-Serif" font-size="9.00">switch&#45;channel.js</text>
</a>
</g>
</g>
<!-- client/src/presentation/listeners/index.js&#45;&gt;client/src/presentation/listeners/switch&#45;channel.js -->
<g id="edge24" class="edge">
<title>client/src/presentation/listeners/index.js&#45;&gt;client/src/presentation/listeners/switch&#45;channel.js</title>
<path fill="none" stroke="#000000" stroke-width="2" stroke-opacity="0.200000" d="M135.82,-201.32C142.65,-211.57 154.84,-227.92 169,-238 170.86,-239.33 172.85,-240.56 174.9,-241.7"/>
<polygon fill="#000000" fill-opacity="0.200000" stroke="#000000" stroke-width="2" stroke-opacity="0.200000" points="174.17,-243.69 180.47,-244.53 176.07,-239.94 174.17,-243.69"/>
</g>
<!-- client/src/presentation/components/channel&#45;listings.component.js&#45;&gt;client/src/data&#45;access/index.js -->
<g id="edge6" class="edge">
<title>client/src/presentation/components/channel&#45;listings.component.js&#45;&gt;client/src/data&#45;access/index.js</title>
<path fill="none" stroke="#000000" stroke-width="2" stroke-opacity="0.200000" d="M489.38,-212.65C506.54,-198.13 539.47,-168.71 562.05,-139 573.13,-124.44 582.96,-105.85 589.17,-93.04"/>
<polygon fill="#000000" fill-opacity="0.200000" stroke="#000000" stroke-width="2" stroke-opacity="0.200000" points="591.07,-93.92 591.75,-87.6 587.28,-92.11 591.07,-93.92"/>
</g>
<!-- client/src/presentation/components/footer.component.js&#45;&gt;client/src/data&#45;access/index.js -->
<g id="edge7" class="edge">
<title>client/src/presentation/components/footer.component.js&#45;&gt;client/src/data&#45;access/index.js</title>
<path fill="none" stroke="#000000" stroke-width="2" stroke-opacity="0.200000" d="M524.75,-315.95C538.46,-313.87 552.36,-309.04 562.05,-299 590.45,-269.58 595.13,-138.95 595.9,-93.59"/>
<polygon fill="#000000" fill-opacity="0.200000" stroke="#000000" stroke-width="2" stroke-opacity="0.200000" points="598,-93.56 595.99,-87.53 593.81,-93.5 598,-93.56"/>
</g>
<!-- client/src/presentation/components/header.component.js&#45;&gt;client/src/data&#45;access/index.js -->
<g id="edge8" class="edge">
<title>client/src/presentation/components/header.component.js&#45;&gt;client/src/data&#45;access/index.js</title>
<path fill="none" stroke="#000000" stroke-width="2" stroke-opacity="0.200000" d="M527.47,-253.09C540.16,-250.77 552.82,-246.03 562.05,-237 582.39,-217.12 591.77,-130.06 594.85,-93.87"/>
<polygon fill="#000000" fill-opacity="0.200000" stroke="#000000" stroke-width="2" stroke-opacity="0.200000" points="596.96,-93.88 595.35,-87.73 592.77,-93.54 596.96,-93.88"/>
</g>
<!-- client/src/presentation/handlers/handlers.js -->
<g id="node11" class="node">
<title>client/src/presentation/handlers/handlers.js</title>
<g id="a_node11"><a xlink:href="client/src/presentation/handlers/handlers.js" xlink:title="handlers.js">
<path fill="#ffffcc" stroke="black" d="M359.58,-170.3C359.58,-170.3 312.96,-170.3 312.96,-170.3 309.86,-170.3 306.76,-167.2 306.76,-164.1 306.76,-164.1 306.76,-157.9 306.76,-157.9 306.76,-154.8 309.86,-151.7 312.96,-151.7 312.96,-151.7 359.58,-151.7 359.58,-151.7 362.68,-151.7 365.78,-154.8 365.78,-157.9 365.78,-157.9 365.78,-164.1 365.78,-164.1 365.78,-167.2 362.68,-170.3 359.58,-170.3"/>
<text text-anchor="middle" x="336.27" y="-158.3" font-family="Helvetica,sans-Serif" font-size="9.00">handlers.js</text>
</a>
</g>
</g>
<!-- client/src/presentation/handlers/handlers.js&#45;&gt;client/src/data&#45;access/api&#45;calls/calls.js -->
<g id="edge14" class="edge">
<title>client/src/presentation/handlers/handlers.js&#45;&gt;client/src/data&#45;access/api&#45;calls/calls.js</title>
<path fill="none" stroke="#000000" stroke-width="2" stroke-opacity="0.200000" d="M365.83,-158.58C375.67,-156.74 386.38,-153.54 395.03,-148 403.04,-142.87 401.72,-138.11 408.03,-131 425.12,-111.78 446.7,-91.42 460.91,-78.48"/>
<polygon fill="#000000" fill-opacity="0.200000" stroke="#000000" stroke-width="2" stroke-opacity="0.200000" points="462.4,-79.97 465.44,-74.39 459.58,-76.86 462.4,-79.97"/>
</g>
<!-- client/src/presentation/handlers/handlers.js&#45;&gt;client/src/data&#45;access/index.js -->
<g id="edge15" class="edge">
<title>client/src/presentation/handlers/handlers.js&#45;&gt;client/src/data&#45;access/index.js</title>
<path fill="none" stroke="#000000" stroke-width="2" stroke-opacity="0.200000" d="M365.82,-154.79C375.15,-152.7 385.55,-150.32 395.03,-148 469.61,-129.79 493.11,-137.75 562.05,-104 568.8,-100.7 575.52,-95.95 581.18,-91.41"/>
<polygon fill="#000000" fill-opacity="0.200000" stroke="#000000" stroke-width="2" stroke-opacity="0.200000" points="582.79,-92.81 586.05,-87.36 580.1,-89.58 582.79,-92.81"/>
</g>
<!-- client/src/presentation/handlers/handlers.js&#45;&gt;client/src/presentation/components/channel&#45;listings.component.js -->
<g id="edge16" class="edge">
<title>client/src/presentation/handlers/handlers.js&#45;&gt;client/src/presentation/components/channel&#45;listings.component.js</title>
<path fill="none" stroke="#000000" stroke-width="2" stroke-opacity="0.200000" d="M358.65,-170.4C382.96,-181.09 422.71,-198.56 449.12,-210.16"/>
<polygon fill="#000000" fill-opacity="0.200000" stroke="#000000" stroke-width="2" stroke-opacity="0.200000" points="448.53,-212.2 454.87,-212.69 450.22,-208.35 448.53,-212.2"/>
</g>
<!-- client/src/presentation/handlers/handlers.js&#45;&gt;client/src/presentation/components/header.component.js -->
<g id="edge17" class="edge">
<title>client/src/presentation/handlers/handlers.js&#45;&gt;client/src/presentation/components/header.component.js</title>
<path fill="none" stroke="#000000" stroke-width="2" stroke-opacity="0.200000" d="M355.92,-170.37C368.49,-177.52 384.63,-188.44 395.03,-202 405.14,-215.16 395.59,-226.02 408.03,-237 411.89,-240.4 416.34,-243.12 421.07,-245.28"/>
<polygon fill="#000000" fill-opacity="0.200000" stroke="#000000" stroke-width="2" stroke-opacity="0.200000" points="420.39,-247.27 426.74,-247.57 421.96,-243.38 420.39,-247.27"/>
</g>
<!-- client/src/presentation/handlers/handlers.js&#45;&gt;client/src/presentation/components/message&#45;history.component.js -->
<g id="edge18" class="edge">
<title>client/src/presentation/handlers/handlers.js&#45;&gt;client/src/presentation/components/message&#45;history.component.js</title>
<path fill="none" stroke="#000000" stroke-width="2" stroke-opacity="0.200000" d="M357.46,-170.32C370.22,-177.26 385.95,-187.96 395.03,-202 411.27,-227.11 387.28,-246.48 408.03,-268 409.03,-269.03 410.07,-270 411.16,-270.91"/>
<polygon fill="#000000" fill-opacity="0.200000" stroke="#000000" stroke-width="2" stroke-opacity="0.200000" points="410.12,-272.74 416.21,-274.54 412.57,-269.33 410.12,-272.74"/>
</g>
<!-- client/src/presentation/listeners/add&#45;channel.js&#45;&gt;client/src/presentation/handlers/handlers.js -->
<g id="edge19" class="edge">
<title>client/src/presentation/listeners/add&#45;channel.js&#45;&gt;client/src/presentation/handlers/handlers.js</title>
<path fill="none" stroke="#000000" stroke-width="2" stroke-opacity="0.200000" d="M248.5,-161C264.89,-161 284.18,-161 300.4,-161"/>
<polygon fill="#000000" fill-opacity="0.200000" stroke="#000000" stroke-width="2" stroke-opacity="0.200000" points="300.69,-163.1 306.69,-161 300.69,-158.9 300.69,-163.1"/>
</g>
<!-- client/src/presentation/listeners/auto&#45;updates.js&#45;&gt;client/src/presentation/handlers/handlers.js -->
<g id="edge20" class="edge">
<title>client/src/presentation/listeners/auto&#45;updates.js&#45;&gt;client/src/presentation/handlers/handlers.js</title>
<path fill="none" stroke="#000000" stroke-width="2" stroke-opacity="0.200000" d="M249.5,-182.61C265.73,-178.52 284.64,-173.76 300.58,-169.74"/>
<polygon fill="#000000" fill-opacity="0.200000" stroke="#000000" stroke-width="2" stroke-opacity="0.200000" points="301.45,-171.69 306.75,-168.19 300.42,-167.62 301.45,-171.69"/>
</g>
<!-- client/src/presentation/listeners/send&#45;message.js&#45;&gt;client/src/presentation/handlers/handlers.js -->
<g id="edge25" class="edge">
<title>client/src/presentation/listeners/send&#45;message.js&#45;&gt;client/src/presentation/handlers/handlers.js</title>
<path fill="none" stroke="#000000" stroke-width="2" stroke-opacity="0.200000" d="M244.75,-213.7C250.43,-211.72 256.21,-209.47 261.51,-207 261.59,-206.96 292.91,-187.43 314.7,-173.83"/>
<polygon fill="#000000" fill-opacity="0.200000" stroke="#000000" stroke-width="2" stroke-opacity="0.200000" points="316.03,-175.48 320.01,-170.52 313.81,-171.91 316.03,-175.48"/>
</g>
<!-- client/src/presentation/listeners/switch&#45;channel.js&#45;&gt;client/src/presentation/handlers/handlers.js -->
<g id="edge26" class="edge">
<title>client/src/presentation/listeners/switch&#45;channel.js&#45;&gt;client/src/presentation/handlers/handlers.js</title>
<path fill="none" stroke="#000000" stroke-width="2" stroke-opacity="0.200000" d="M253.57,-244.45C256.51,-242.66 259.21,-240.53 261.51,-238 272.53,-225.87 260.04,-215.38 269.51,-202 278.48,-189.32 292.75,-179.73 305.7,-173.03"/>
<polygon fill="#000000" fill-opacity="0.200000" stroke="#000000" stroke-width="2" stroke-opacity="0.200000" points="306.7,-174.88 311.15,-170.34 304.84,-171.11 306.7,-174.88"/>
</g>
</g>
</svg>
